<?xml version="1.0" encoding="utf-8"?>
<!-- Generator: Adobe Illustrator 24.0.2, SVG Export Plug-In . SVG Version: 6.00 Build 0)  -->
<svg version="1.1" id="Capa_1" xmlns="http://www.w3.org/2000/svg" xmlns:xlink="http://www.w3.org/1999/xlink" x="0px" y="0px"
	 viewBox="0 0 24 24" style="enable-background:new 0 0 24 24;" xml:space="preserve">
<style type="text/css">
	.st0{fill:#0F6CD8;}
</style>
<path class="st0" d="M22.1,15.8c-1.5,0-2.9-0.2-4.3-0.7c-0.7-0.2-1.5,0-1.9,0.4l-2.7,2c-3.1-1.7-5.1-3.6-6.7-6.7l2-2.6
	C9,7.7,9.2,6.9,9,6.2C8.5,4.8,8.3,3.4,8.3,1.9c0-1-0.9-1.9-2-1.9H1.9C0.9,0,0,0.9,0,1.9C0,14.1,9.9,24,22.1,24
	c1.1,0,1.9-0.9,1.9-1.9v-4.4C24,16.6,23.1,15.8,22.1,15.8z"/>
</svg>
