<?xml version="1.0" encoding="UTF-8"?> <svg xmlns="http://www.w3.org/2000/svg" viewBox="0 0 10 10"><path d="m3 7.5c-.1 0-.1-.1 0 0-.2-.1-.2-.2-.3-.2-.5-.5-1-1.1-1.4-1.6-.4-.6-.7-1.1-1-1.7-.2-.7-.3-1.2-.3-1.7 0-.3.1-.7.2-1s.3-.6.6-.8c.3-.3.6-.5 1-.5.1 0 .3 0 .4.1s.2.2.3.3l1.2 1.6c.1.1.2.2.2.4-0 .1.1.2.1.3s0 .2-.1.4c-.1 0-.2.2-.3.3l-.4.4c-.1 0-.1.1-.1.2v.1.1c.1.2.2.4.5.6.2.2.4.4.6.6 0 0 0 0 .1.1s.1.1.2.2c.3.3.5.5.8.7s.5.4.6.5h.1.1c.1 0 .1 0 .2-.1l.4-.4c0-.1.2-.2.3-.3.1-0 .2-.1.3-.1s.2 0 .3.1c.1 0 .2.1.4.2l1.6 1.2c.1.1.2.2.3.3s.1.3.1.4c0 .4-.2.7-.5 1-.2.3-.5.5-.8.6s-.6.2-1 .2c-.5 0-1.1-.1-1.6-.4-.6-.2-1.1-.5-1.7-.9-.5-.4-1-.8-1.4-1.2z" fill="#fcfcfc"></path></svg> 