<?xml version="1.0" encoding="UTF-8"?> <svg xmlns="http://www.w3.org/2000/svg" xmlns:v="https://vecta.io/nano" viewBox="0 0 512 512"><path d="M21.59 194.313h468.819v234.41H21.59z" fill="#ededed"></path><path d="M441.06 194.313h49.349v234.41H441.06z" fill="#d8d8da"></path><path d="M231.325 293.012H441.06v86.361H231.325z" fill="#d1e5f5"></path><path d="M268.337 293.012l86.362 86.362h86.361v-86.362z" fill="#b4d8f1"></path><path d="M502.747 157.301l-12.337 12.338H21.59L9.253 157.301l74.024-74.024h345.446z" fill="#80cb93"></path><path d="M428.723 83.277h-24.675l74.024 74.024-12.337 12.338h24.675l12.337-12.338z" fill="#6dc180"></path><path d="M9.253 194.313C9.253 228.382 36.871 256 70.94 256s61.687-27.618 61.687-61.687c0 34.068 27.618 61.687 61.687 61.687S256 228.382 256 194.313C256 228.382 283.618 256 317.687 256s61.687-27.618 61.687-61.687c0 34.068 27.618 61.687 61.687 61.687s61.687-27.618 61.687-61.687v-37.012H9.253v37.012z" fill="#95d5a7"></path><path d="M478.072 157.301v37.012c0 29.843-21.193 54.735-49.349 60.451A61.98 61.98 0 0 0 441.06 256c34.068 0 61.687-27.618 61.687-61.687v-37.012h-24.675zm-172.723 97.463A61.98 61.98 0 0 0 317.686 256c34.068 0 61.687-27.618 61.687-61.687h-13.371c-6.058 0-11.162 4.409-12.174 10.382-4.253 25.094-23.661 45.03-48.479 50.069zm-123.373 0A61.98 61.98 0 0 0 194.313 256C228.382 256 256 228.382 256 194.313h-13.371c-6.058 0-11.162 4.409-12.174 10.382-4.253 25.094-23.661 45.03-48.479 50.069zm-123.374 0A61.99 61.99 0 0 0 70.94 256c34.068 0 61.687-27.618 61.687-61.687h-13.371c-6.058 0-11.162 4.409-12.174 10.382-4.254 25.094-23.662 45.03-48.48 50.069z" fill="#80cb93"></path><path d="M70.94 293.012h111.036v135.711H70.94z" fill="#e07188"></path><path d="M144.964 293.012h37.012v135.711h-37.012zm-37.012 83.277c-5.11 0-9.253-4.142-9.253-9.253v-12.337c0-5.111 4.143-9.253 9.253-9.253s9.253 4.142 9.253 9.253v12.337c0 5.112-4.143 9.253-9.253 9.253z" fill="#dc4161"></path><path d="M512 194.313v-37.012c0-2.554-1.035-4.866-2.708-6.54l-74.027-74.028c-1.735-1.735-4.089-2.709-6.542-2.709H181.975c-5.11 0-9.253 4.142-9.253 9.253s4.143 9.253 9.253 9.253H424.89l55.518 55.518H31.591L87.109 92.53h57.855c5.11 0 9.253-4.142 9.253-9.253s-4.143-9.253-9.253-9.253H83.277c-2.454 0-4.808.975-6.542 2.709L2.711 150.757C1.035 152.434 0 154.746 0 157.301v37.012a70.53 70.53 0 0 0 12.337 39.925v194.485c0 5.111 4.143 9.253 9.253 9.253h468.82c5.11 0 9.253-4.142 9.253-9.253V280.675c0-5.111-4.143-9.253-9.253-9.253s-9.253 4.142-9.253 9.253V419.47H191.229V293.012c0-5.111-4.143-9.253-9.253-9.253H70.94c-5.11 0-9.253 4.142-9.253 9.253V419.47H30.843V252.794c11.415 7.851 25.225 12.459 40.096 12.459 26.396 0 49.47-14.49 61.687-35.935 12.216 21.445 35.291 35.935 61.687 35.935s49.47-14.49 61.687-35.935c12.216 21.445 35.291 35.935 61.687 35.935s49.47-14.49 61.687-35.935c12.216 21.445 35.291 35.935 61.687 35.935 39.116 0 70.939-31.823 70.939-70.94zM80.193 302.265h92.53V419.47h-92.53V302.265zm360.867-55.518c-28.913 0-52.434-23.521-52.434-52.434 0-5.111-4.143-9.253-9.253-9.253s-9.253 4.142-9.253 9.253c0 28.913-23.521 52.434-52.434 52.434s-52.434-23.521-52.434-52.434c0-5.111-4.143-9.253-9.253-9.253s-9.253 4.142-9.253 9.253c0 28.913-23.521 52.434-52.434 52.434s-52.434-23.521-52.434-52.434c0-5.111-4.143-9.253-9.253-9.253s-9.253 4.142-9.253 9.253c0 28.913-23.521 52.434-52.434 52.434s-52.434-23.521-52.434-52.434v-27.759h474.988v27.759c.002 28.913-23.519 52.434-52.432 52.434zM268.336 370.12c-5.11 0-9.253 4.142-9.253 9.253s4.143 9.253 9.253 9.253H441.06c5.11 0 9.253-4.142 9.253-9.253v-86.361c0-5.111-4.143-9.253-9.253-9.253H231.325c-5.11 0-9.253 4.142-9.253 9.253v86.361c0 5.111 4.143 9.253 9.253 9.253s9.253-4.142 9.253-9.253v-77.108h191.229v67.855H268.336z" fill="#2e2d31"></path></svg> 